{"glyphs":{"0":{"ha":826,"x_min":57,"x_max":768,"o":"m 57 332 l 57 654 q 158 907 57 807 q 412 1007 260 1007 q 666 906 564 1007 q 768 654 768 806 l 768 332 q 668 80 768 179 q 412 -20 567 -20 q 158 79 260 -20 q 57 332 57 178 m 298 332 q 329 233 298 267 q 416 200 359 200 q 499 234 468 200 q 530 330 530 268 l 530 656 q 500 752 530 718 q 416 786 469 786 q 330 752 361 786 q 298 654 298 718 l 298 332 z "},"1":{"ha":826,"x_min":163,"x_max":567,"o":"m 163 804 l 163 987 l 567 987 l 567 0 l 336 0 l 336 804 l 163 804 z "},"2":{"ha":826,"x_min":72,"x_max":764,"o":"m 72 631 q 166 901 72 800 q 418 1002 260 1002 q 671 922 578 1002 q 764 711 764 843 q 674 460 764 589 q 415 221 585 330 l 761 221 l 761 0 l 78 0 l 78 210 q 403 458 293 337 q 513 685 513 579 q 488 765 513 736 q 416 794 463 794 q 342 758 369 794 q 315 653 315 721 l 317 631 l 72 631 z "},"3":{"ha":826,"x_min":65,"x_max":760,"o":"m 65 297 l 309 297 l 309 285 q 337 216 309 240 q 416 192 366 192 q 494 220 467 192 q 522 294 522 248 q 354 404 522 404 l 306 403 l 306 589 l 330 587 q 485 708 484 587 q 464 779 485 754 q 406 804 443 804 q 330 722 330 804 l 330 707 l 94 707 q 179 926 94 846 q 408 1007 264 1007 q 625 931 543 1007 q 707 733 707 854 q 567 533 707 583 q 760 304 760 477 q 665 72 760 164 q 415 -20 571 -20 q 157 62 248 -20 q 65 297 65 144 z "},"4":{"ha":826,"x_min":43,"x_max":796,"o":"m 43 178 l 43 366 l 465 987 l 700 987 l 700 375 l 796 375 l 796 178 l 700 178 l 700 0 l 465 0 l 465 178 l 43 178 m 277 366 l 482 366 l 490 694 l 277 366 z "},"5":{"ha":826,"x_min":35,"x_max":786,"o":"m 35 267 l 289 267 q 333 219 302 237 q 399 201 364 201 q 500 240 460 201 q 541 342 541 279 q 503 433 541 396 q 406 471 465 471 q 272 379 311 471 l 72 435 l 163 987 l 703 987 l 703 790 l 354 790 l 322 640 q 463 677 385 677 q 696 583 606 677 q 786 338 786 489 q 685 75 786 171 q 399 -21 583 -21 q 160 53 254 -21 q 35 267 66 126 z "},"6":{"ha":826,"x_min":43,"x_max":787,"o":"m 43 353 q 77 517 43 457 q 167 661 111 578 l 383 987 l 653 987 l 428 676 q 461 681 439 679 q 505 684 484 684 q 705 589 622 684 q 787 355 787 494 q 683 88 787 195 q 418 -20 578 -20 q 176 62 254 -20 q 71 211 98 143 q 43 353 43 279 m 277 347 q 314 253 277 292 q 406 214 351 214 q 503 254 463 214 q 543 353 543 294 q 507 447 543 410 q 414 485 471 485 q 314 447 351 485 q 277 347 277 410 z "},"7":{"ha":826,"x_min":92,"x_max":737,"o":"m 92 770 l 92 987 l 737 987 l 737 770 l 401 0 l 144 0 l 507 770 l 92 770 z "},"8":{"ha":826,"x_min":54,"x_max":772,"o":"m 54 292 q 96 445 54 382 q 221 539 138 507 q 109 736 109 603 q 193 931 109 855 q 411 1007 277 1007 q 634 933 550 1007 q 718 737 718 859 q 604 538 718 608 q 727 449 681 515 q 772 294 772 383 q 674 68 772 158 q 416 -21 576 -21 q 151 64 248 -21 q 54 292 54 150 m 290 315 q 324 231 290 262 q 415 200 358 200 q 505 233 469 200 q 541 314 541 265 q 504 400 541 367 q 408 433 468 433 q 324 401 358 433 q 290 315 290 368 m 323 710 q 349 647 323 674 q 410 621 374 621 q 476 646 450 621 q 503 710 503 671 q 478 775 503 749 q 412 802 453 802 q 349 777 374 802 q 323 710 323 751 z "},"9":{"ha":826,"x_min":45,"x_max":789,"o":"m 45 625 q 150 893 45 785 q 414 1000 254 1000 q 655 919 578 1000 q 761 769 733 838 q 789 628 789 701 q 755 463 789 524 q 665 319 721 403 l 449 -7 l 179 -7 l 404 304 q 371 299 393 302 q 326 297 349 297 q 127 392 210 297 q 45 625 45 486 m 290 628 q 326 533 290 570 q 418 496 361 496 q 518 533 480 496 q 555 633 555 571 q 518 728 555 689 q 427 766 481 766 q 329 726 368 766 q 290 628 290 686 z "}," ":{"ha":412,"x_min":0,"x_max":0,"o":""},"!":{"ha":437,"x_min":107,"x_max":330,"o":"m 107 325 l 107 987 l 330 987 l 330 325 l 107 325 m 110 0 l 110 228 l 329 228 l 329 0 l 110 0 z "},"\"":{"ha":459,"x_min":54,"x_max":406,"o":"m 54 596 l 54 975 l 184 975 l 184 596 l 54 596 m 275 596 l 275 975 l 406 975 l 406 596 l 275 596 z "},"#":{"ha":1067,"x_min":31,"x_max":1038,"o":"m 31 275 l 82 411 l 273 411 l 332 575 l 129 575 l 179 711 l 380 711 l 481 993 l 631 993 l 532 711 l 696 711 l 796 993 l 946 993 l 846 711 l 1038 711 l 987 575 l 798 575 l 741 411 l 937 411 l 889 275 l 692 275 l 591 -7 l 441 -7 l 542 275 l 376 275 l 275 -7 l 126 -7 l 225 275 l 31 275 m 421 411 l 591 411 l 650 575 l 481 575 l 421 411 z "},"$":{"ha":826,"x_min":81,"x_max":746,"o":"m 81 289 l 329 289 q 352 227 329 249 q 414 204 375 204 q 489 286 489 204 q 463 350 489 331 q 367 397 437 370 q 245 447 296 424 q 156 512 195 469 q 101 601 118 555 q 85 697 85 647 q 335 985 85 937 l 335 1136 l 494 1136 l 494 983 q 654 899 597 968 q 711 717 711 829 l 485 713 q 410 798 485 798 q 353 777 374 798 q 332 720 332 755 q 365 654 332 678 q 510 588 399 631 q 683 475 621 545 q 746 294 746 406 q 677 110 746 190 q 494 3 608 29 l 494 -160 l 335 -160 l 335 0 q 148 95 216 21 q 81 289 81 170 z "},"%":{"ha":1173,"x_min":36,"x_max":1131,"o":"m 36 764 q 107 936 36 865 q 279 1007 178 1006 q 452 936 381 1007 q 522 764 522 865 q 451 591 522 662 q 279 521 380 521 q 107 591 178 521 q 36 764 36 662 m 187 764 q 212 700 187 726 q 277 673 237 673 q 340 700 314 673 q 367 764 367 726 q 340 826 367 800 q 277 852 314 852 q 213 827 239 852 q 187 764 187 801 m 256 -21 l 783 1008 l 908 1008 l 380 -21 l 256 -21 m 644 222 q 715 395 644 324 q 888 465 786 465 q 1060 394 989 465 q 1131 222 1131 323 q 1060 50 1131 121 q 888 -21 989 -21 q 715 50 786 -21 q 644 222 644 121 m 796 222 q 821 159 796 185 q 885 132 846 132 q 949 158 922 132 q 975 222 975 184 q 949 285 975 258 q 885 311 922 311 q 822 286 848 311 q 796 222 796 260 z "},"&":{"ha":964,"x_min":33,"x_max":929,"o":"m 33 269 q 211 538 33 410 q 125 746 125 649 q 201 933 125 859 q 395 1007 277 1007 q 581 938 506 1007 q 656 771 656 868 q 525 534 656 642 l 635 425 l 705 578 l 929 578 q 856 397 892 473 q 785 264 819 321 l 913 131 l 762 -22 l 650 93 q 355 -20 529 -20 q 123 63 212 -20 q 33 269 33 146 m 268 286 q 298 218 268 245 q 375 191 328 191 q 436 205 407 191 q 503 250 465 220 l 351 401 q 268 286 268 355 m 338 758 q 396 647 338 699 q 454 764 454 708 q 399 823 454 823 q 354 805 371 823 q 338 758 338 787 z "},"'":{"ha":239,"x_min":54,"x_max":184,"o":"m 54 596 l 54 975 l 184 975 l 184 596 l 54 596 z "},"(":{"ha":433,"x_min":61,"x_max":427,"o":"m 61 151 l 61 551 q 78 749 61 677 q 165 893 96 821 q 427 1007 275 1007 l 427 803 q 296 743 323 803 q 269 524 269 682 l 269 179 q 297 -39 269 22 q 427 -100 325 -100 l 427 -304 q 188 -213 277 -304 q 80 -46 100 -122 q 61 151 61 31 z "},")":{"ha":433,"x_min":7,"x_max":372,"o":"m 7 -100 q 137 -39 109 -100 q 165 179 165 22 l 165 524 q 138 742 165 682 q 7 803 110 803 l 7 1007 q 247 916 159 1007 q 354 748 335 825 q 372 551 372 671 l 372 151 q 354 -46 372 28 q 247 -213 336 -121 q 7 -304 158 -304 l 7 -100 z "},"*":{"ha":694,"x_min":43,"x_max":652,"o":"m 43 704 l 92 856 l 272 791 l 272 987 l 422 987 l 422 791 l 603 856 l 652 704 l 463 653 l 595 490 l 464 397 l 347 568 l 231 397 l 98 490 l 232 653 l 43 704 z "},"+":{"ha":1156,"x_min":172,"x_max":985,"o":"m 172 347 l 172 482 l 510 482 l 510 828 l 647 828 l 647 482 l 985 482 l 985 347 l 647 347 l 647 0 l 510 0 l 510 347 l 172 347 z "},",":{"ha":412,"x_min":96,"x_max":317,"o":"m 96 0 l 96 228 l 317 228 l 317 -33 q 132 -227 317 -227 l 96 -225 l 96 -113 l 115 -114 q 175 -93 160 -114 q 191 -18 191 -72 l 191 0 l 96 0 z "},"-":{"ha":486,"x_min":54,"x_max":428,"o":"m 54 273 l 54 472 l 428 472 l 428 273 l 54 273 z "},".":{"ha":412,"x_min":94,"x_max":319,"o":"m 94 0 l 94 228 l 319 228 l 319 0 l 94 0 z "},"/":{"ha":386,"x_min":-43,"x_max":404,"o":"m -43 -129 l 272 987 l 404 987 l 87 -129 l -43 -129 z "},":":{"ha":439,"x_min":104,"x_max":329,"o":"m 104 0 l 104 228 l 329 228 l 329 0 l 104 0 m 104 484 l 104 713 l 329 713 l 329 484 l 104 484 z "},";":{"ha":439,"x_min":103,"x_max":328,"o":"m 103 484 l 103 713 l 328 713 l 328 484 l 103 484 m 107 0 l 107 228 l 325 228 l 325 -33 q 142 -227 325 -227 l 107 -225 l 107 -113 l 126 -114 q 184 -92 169 -114 q 199 -11 199 -71 l 199 0 l 107 0 z "},"<":{"ha":1156,"x_min":179,"x_max":978,"o":"m 179 347 l 179 482 l 978 810 l 978 661 l 372 414 l 978 167 l 978 18 l 179 347 z "},"=":{"ha":1156,"x_min":172,"x_max":985,"o":"m 172 201 l 172 336 l 985 336 l 985 201 l 172 201 m 172 493 l 172 628 l 985 628 l 985 493 l 172 493 z "},">":{"ha":1156,"x_min":179,"x_max":978,"o":"m 179 18 l 179 167 l 786 414 l 179 661 l 179 810 l 978 482 l 978 347 l 179 18 z "},"?":{"ha":743,"x_min":25,"x_max":686,"o":"m 25 661 l 25 681 q 121 917 25 827 q 370 1007 216 1007 q 598 924 510 1007 q 686 714 686 842 q 659 594 686 646 q 577 492 632 542 q 475 399 522 441 q 432 310 432 354 l 197 310 l 196 326 q 290 506 196 408 q 405 631 383 603 q 427 708 427 660 q 404 766 427 744 q 345 789 382 789 q 262 676 262 789 l 262 661 l 25 661 m 203 0 l 203 227 l 428 227 l 428 0 l 203 0 z "},"@":{"ha":1389,"x_min":61,"x_max":1329,"o":"m 61 353 q 233 794 61 583 q 757 1004 406 1004 q 974 974 876 1004 q 1201 845 1072 943 q 1329 518 1329 746 q 1195 180 1329 288 q 937 72 1060 72 q 791 184 791 72 q 590 74 720 73 q 371 304 370 74 q 466 577 371 469 q 699 686 561 686 q 859 597 807 686 l 895 664 l 1015 664 l 916 258 l 911 231 q 975 183 911 183 q 1029 196 1000 183 q 1131 277 1059 210 q 1203 521 1203 345 q 1079 788 1203 682 q 753 893 954 893 q 436 809 561 893 q 249 608 311 725 q 186 354 186 492 q 327 22 186 147 q 701 -103 468 -103 q 916 -70 811 -103 q 1111 26 1021 -36 l 1166 -53 q 704 -210 957 -210 q 464 -177 572 -210 q 208 -31 355 -144 q 61 353 61 83 m 515 301 q 623 174 515 174 q 725 215 678 174 q 789 328 771 257 l 825 475 q 707 587 808 587 q 573 503 630 587 q 515 301 515 419 z "},"A":{"ha":836,"x_min":-60,"x_max":896,"o":"m -60 0 l 319 987 l 517 987 l 896 0 l 629 0 l 581 143 l 254 143 l 204 0 l -60 0 m 319 347 l 515 347 l 418 664 l 319 347 z "},"B":{"ha":814,"x_min":78,"x_max":766,"o":"m 78 0 l 78 987 l 415 987 q 643 925 565 987 q 721 745 721 863 q 597 533 721 596 q 766 306 767 481 q 693 95 766 161 q 555 14 621 28 q 378 0 489 0 l 78 0 m 311 207 l 393 207 q 496 229 465 207 q 528 310 528 252 q 495 392 528 370 q 389 415 463 415 l 311 415 l 311 207 m 311 604 l 370 604 q 471 622 440 604 q 501 688 501 639 q 475 759 501 736 q 390 781 449 781 l 311 781 l 311 604 z "},"C":{"ha":1071,"x_min":33,"x_max":1035,"o":"m 33 504 q 182 861 33 715 q 543 1007 332 1007 q 853 901 718 1007 q 1035 612 987 794 l 774 612 q 545 761 693 761 q 358 686 435 761 q 282 503 282 611 q 359 306 282 387 q 541 225 436 225 q 768 367 686 225 l 1031 367 q 851 84 982 188 q 541 -20 720 -20 q 178 133 322 -20 q 33 504 33 286 z "},"D":{"ha":968,"x_min":78,"x_max":929,"o":"m 78 0 l 78 987 l 415 987 q 627 963 543 987 q 820 836 711 939 q 929 489 929 733 q 820 156 929 262 q 637 24 711 49 q 449 0 564 0 l 78 0 m 319 216 l 416 216 q 623 284 557 216 q 689 497 689 351 q 619 704 689 632 q 415 775 549 775 l 319 775 l 319 216 z "},"E":{"ha":687,"x_min":77,"x_max":612,"o":"m 77 0 l 77 987 l 612 987 l 612 770 l 318 770 l 318 610 l 612 610 l 612 390 l 318 390 l 318 218 l 612 218 l 612 0 l 77 0 z "},"F":{"ha":682,"x_min":77,"x_max":612,"o":"m 77 0 l 77 987 l 612 987 l 612 770 l 318 770 l 318 611 l 612 611 l 612 389 l 318 389 l 318 0 l 77 0 z "},"G":{"ha":1080,"x_min":33,"x_max":1046,"o":"m 33 504 q 182 860 33 713 q 543 1007 332 1007 q 831 917 703 1007 q 1018 667 958 827 l 743 667 q 541 762 652 762 q 357 686 432 762 q 282 503 282 610 q 359 306 282 387 q 541 225 436 225 q 762 358 688 225 l 481 358 l 481 555 l 1043 555 l 1046 490 q 967 211 1046 325 q 779 39 889 97 q 541 -20 668 -20 q 178 133 322 -20 q 33 504 33 286 z "},"H":{"ha":887,"x_min":78,"x_max":810,"o":"m 78 0 l 78 987 l 319 987 l 319 612 l 567 612 l 567 987 l 810 987 l 810 0 l 567 0 l 567 378 l 319 378 l 319 0 l 78 0 z "},"I":{"ha":398,"x_min":78,"x_max":319,"o":"m 78 0 l 78 987 l 319 987 l 319 0 l 78 0 z "},"J":{"ha":712,"x_min":8,"x_max":637,"o":"m 8 313 l 248 317 l 248 311 q 322 211 248 212 q 378 239 362 211 q 395 330 395 267 l 395 987 l 637 987 l 637 404 q 629 237 637 301 q 595 125 621 174 q 318 -18 514 -18 q 89 68 170 -18 q 8 313 8 155 z "},"K":{"ha":838,"x_min":78,"x_max":880,"o":"m 78 0 l 78 987 l 321 987 l 321 522 l 612 987 l 880 987 l 555 485 l 871 0 l 579 0 l 321 428 l 321 0 l 78 0 z "},"L":{"ha":606,"x_min":77,"x_max":599,"o":"m 77 0 l 77 987 l 317 987 l 317 218 l 599 218 l 599 0 l 77 0 z "},"M":{"ha":1193,"x_min":78,"x_max":1117,"o":"m 78 0 l 78 987 l 408 987 l 597 383 l 787 987 l 1117 987 l 1117 0 l 886 0 l 886 653 l 682 0 l 511 0 l 307 653 l 307 0 l 78 0 z "},"N":{"ha":980,"x_min":79,"x_max":901,"o":"m 79 0 l 79 987 l 297 987 l 660 439 l 660 987 l 901 987 l 901 0 l 689 0 l 321 550 l 321 0 l 79 0 z "},"O":{"ha":1093,"x_min":39,"x_max":1054,"o":"m 39 504 q 189 861 39 713 q 549 1006 336 1006 q 865 896 753 1006 q 1015 694 977 786 q 1054 500 1054 603 q 909 133 1054 283 q 547 -18 764 -18 q 182 134 326 -18 q 39 504 39 286 m 288 501 q 365 306 288 386 q 547 227 441 227 q 730 303 656 227 q 804 501 804 380 q 729 685 804 608 q 550 761 654 761 q 364 686 440 761 q 288 501 288 611 z "},"P":{"ha":836,"x_min":79,"x_max":790,"o":"m 79 0 l 79 987 l 407 987 q 555 978 501 987 q 699 904 608 968 q 790 656 790 840 q 749 485 790 562 q 649 372 708 408 q 533 327 590 336 q 390 318 476 318 l 321 318 l 321 0 l 79 0 m 323 532 l 368 532 q 503 559 460 532 q 546 652 546 586 q 507 739 546 711 q 387 766 468 766 l 323 766 l 323 532 z "},"Q":{"ha":1093,"x_min":39,"x_max":1086,"o":"m 39 504 q 188 860 39 713 q 549 1006 336 1006 q 903 858 753 1006 q 1054 496 1054 710 q 965 204 1054 329 q 1059 176 1008 176 l 1086 178 l 1086 -25 l 1018 -28 q 903 -8 950 -28 q 815 60 856 12 q 538 -20 683 -20 q 207 107 375 -20 q 39 504 39 233 m 288 528 q 427 568 355 568 q 614 513 524 568 q 768 355 704 458 q 804 501 804 419 q 729 685 804 608 q 550 761 654 761 q 377 698 448 761 q 288 528 306 635 m 313 370 q 417 255 355 294 q 551 216 479 216 q 639 229 586 216 q 534 345 599 303 q 387 386 469 386 q 313 370 349 387 z "},"R":{"ha":842,"x_min":79,"x_max":808,"o":"m 79 0 l 79 987 l 407 987 q 555 978 501 987 q 699 904 608 968 q 790 657 790 840 q 731 452 790 536 q 567 339 672 368 l 808 0 l 510 0 l 321 318 l 321 0 l 79 0 m 321 532 l 368 532 q 503 559 460 532 q 546 652 546 586 q 507 739 546 711 q 387 766 468 766 l 321 766 l 321 532 z "},"S":{"ha":743,"x_min":35,"x_max":696,"o":"m 35 302 l 35 325 l 265 325 l 265 314 q 355 195 265 195 q 425 216 400 195 q 449 277 449 237 q 401 366 449 336 q 188 460 326 399 q 50 704 50 522 q 143 922 50 838 q 386 1007 236 1007 q 603 928 519 1007 q 686 717 686 848 l 686 701 l 464 701 q 374 798 464 797 q 319 777 342 798 q 297 724 297 755 q 349 643 297 675 q 565 534 433 602 q 696 294 696 467 q 602 72 696 163 q 371 -20 507 -20 q 35 302 35 -20 z "},"T":{"ha":611,"x_min":5,"x_max":618,"o":"m 5 758 l 5 987 l 618 987 l 618 758 l 431 758 l 431 0 l 189 0 l 189 758 l 5 758 z "},"U":{"ha":882,"x_min":77,"x_max":803,"o":"m 77 370 l 77 987 l 319 987 l 319 379 q 347 253 319 294 q 436 211 375 211 q 561 379 561 211 l 561 987 l 803 987 l 803 370 q 703 87 803 191 q 435 -16 603 -16 q 171 85 265 -16 q 77 370 77 185 z "},"V":{"ha":811,"x_min":-33,"x_max":839,"o":"m -33 987 l 216 987 l 403 326 l 589 987 l 839 987 l 533 0 l 272 0 l -33 987 z "},"W":{"ha":1227,"x_min":-28,"x_max":1254,"o":"m -28 987 l 233 987 l 366 422 l 507 987 l 721 987 l 861 422 l 994 987 l 1254 987 l 987 0 l 765 0 l 614 551 l 461 0 l 239 0 l -28 987 z "},"X":{"ha":861,"x_min":-47,"x_max":908,"o":"m -47 0 l 282 513 l 1 987 l 278 987 l 457 682 l 642 987 l 908 987 l 583 488 l 892 0 l 600 0 l 410 314 l 220 0 l -47 0 z "},"Y":{"ha":713,"x_min":-49,"x_max":762,"o":"m -49 987 l 216 987 l 359 625 l 510 987 l 762 987 l 475 366 l 475 0 l 232 0 l 232 366 l -49 987 z "},"Z":{"ha":684,"x_min":22,"x_max":652,"o":"m 22 0 l 22 178 l 385 772 l 32 772 l 32 987 l 652 987 l 652 772 l 314 215 l 648 215 l 648 0 l 22 0 z "},"[":{"ha":433,"x_min":71,"x_max":393,"o":"m 71 -278 l 71 987 l 393 987 l 393 832 l 277 832 l 277 -121 l 393 -121 l 393 -278 l 71 -278 z "},"\\":{"ha":386,"x_min":0,"x_max":447,"o":"m 0 987 l 132 987 l 447 -129 l 315 -129 l 0 987 z "},"]":{"ha":433,"x_min":40,"x_max":364,"o":"m 40 -119 l 157 -119 l 157 832 l 40 832 l 40 987 l 364 987 l 364 -278 l 40 -278 l 40 -119 z "},"^":{"ha":1389,"x_min":282,"x_max":1105,"o":"m 282 610 l 608 990 l 779 990 l 1105 610 l 946 610 l 694 861 l 441 610 l 282 610 z "},"_":{"ha":694,"x_min":0,"x_max":694,"o":"m 0 -189 l 694 -189 l 694 -328 l 0 -328 l 0 -189 z "},"`":{"ha":694,"x_min":149,"x_max":457,"o":"m 149 1092 l 323 1092 l 457 840 l 361 840 l 149 1092 z "},"a":{"ha":900,"x_min":29,"x_max":827,"o":"m 29 376 q 142 648 29 539 q 397 757 254 757 q 607 663 534 757 l 607 746 l 827 746 l 827 0 l 614 0 l 614 83 q 514 16 565 36 q 393 -4 463 -4 q 144 97 258 -4 q 29 376 29 199 m 249 378 q 303 247 249 298 q 441 195 358 195 q 564 247 513 195 q 615 375 615 298 q 563 509 615 456 q 433 562 511 562 q 302 509 355 562 q 249 378 249 456 z "},"b":{"ha":900,"x_min":74,"x_max":871,"o":"m 74 0 l 74 987 l 294 987 l 294 663 q 381 733 330 709 q 503 757 432 757 q 758 648 646 757 q 871 376 871 539 q 756 97 871 199 q 507 -4 642 -4 q 387 16 438 -4 q 286 83 335 36 l 286 0 l 74 0 m 285 375 q 335 247 285 298 q 458 195 386 195 q 597 247 542 195 q 652 378 652 298 q 597 508 652 453 q 465 562 542 562 q 336 510 387 562 q 285 375 285 457 z "},"c":{"ha":838,"x_min":29,"x_max":803,"o":"m 29 378 q 58 525 29 456 q 173 682 87 595 q 418 768 258 768 q 659 693 559 768 q 803 476 758 618 l 571 476 q 416 555 524 555 q 294 506 342 555 q 245 378 245 456 q 294 243 245 293 q 424 193 343 193 q 568 267 514 193 l 803 267 q 660 57 762 133 q 421 -20 558 -20 q 141 98 253 -20 q 29 378 29 216 z "},"d":{"ha":900,"x_min":29,"x_max":827,"o":"m 29 376 q 142 648 29 539 q 397 757 254 757 q 607 663 534 757 l 607 987 l 827 987 l 827 0 l 614 0 l 614 83 q 514 16 565 36 q 393 -4 463 -4 q 144 97 258 -4 q 29 376 29 199 m 249 378 q 303 247 249 298 q 441 195 358 195 q 564 247 513 195 q 615 375 615 298 q 563 509 615 456 q 433 562 511 562 q 302 509 355 562 q 249 378 249 456 z "},"e":{"ha":846,"x_min":29,"x_max":818,"o":"m 29 378 q 58 526 29 456 q 174 682 87 596 q 418 768 260 768 q 708 647 598 768 q 818 319 818 526 l 818 296 l 256 296 q 428 175 285 175 q 489 185 461 175 q 542 216 517 195 l 783 216 q 421 -18 675 -18 q 141 100 253 -18 q 29 378 29 218 m 249 452 l 597 452 q 421 570 557 570 q 307 538 352 570 q 249 452 261 507 z "},"f":{"ha":433,"x_min":17,"x_max":400,"o":"m 17 579 l 17 746 l 97 746 l 96 774 q 366 1006 96 1006 l 400 1004 l 400 854 l 395 854 q 329 835 346 854 q 313 764 313 815 l 313 746 l 400 746 l 400 579 l 313 579 l 313 0 l 97 0 l 97 579 l 17 579 z "},"g":{"ha":900,"x_min":61,"x_max":827,"o":"m 61 376 q 170 649 61 541 q 414 757 278 757 q 615 663 541 757 l 615 746 l 827 746 l 827 77 q 818 -71 827 -18 q 735 -220 808 -125 q 453 -315 661 -315 q 209 -247 306 -315 q 92 -60 113 -178 l 336 -60 q 460 -136 359 -136 q 574 -91 534 -136 q 615 40 615 -46 l 614 78 q 519 17 569 38 q 412 -4 469 -4 q 162 105 262 -4 q 61 376 61 214 m 271 378 q 322 246 271 300 q 450 192 374 192 q 574 244 524 192 q 624 375 624 297 q 574 508 624 454 q 456 561 525 561 q 322 508 374 561 q 271 378 271 456 z "},"h":{"ha":817,"x_min":72,"x_max":746,"o":"m 72 0 l 72 987 l 282 987 l 282 653 q 492 760 350 760 q 677 689 608 760 q 746 492 746 619 l 746 0 l 526 0 l 526 404 q 504 521 526 486 q 419 555 482 555 q 288 404 287 555 l 288 0 l 72 0 z "},"i":{"ha":386,"x_min":83,"x_max":301,"o":"m 83 0 l 83 746 l 301 746 l 301 0 l 83 0 m 83 814 l 83 987 l 301 987 l 301 814 l 83 814 z "},"j":{"ha":386,"x_min":-8,"x_max":301,"o":"m -8 -90 q 67 -64 52 -90 q 83 40 83 -37 l 83 746 l 301 746 l 301 35 q 251 -202 301 -136 q 47 -268 200 -268 l -8 -265 l -8 -90 m 83 814 l 83 987 l 301 987 l 301 814 l 83 814 z "},"k":{"ha":739,"x_min":83,"x_max":783,"o":"m 83 0 l 83 987 l 297 987 l 297 464 l 521 746 l 783 746 l 489 414 l 762 0 l 498 0 l 297 343 l 297 0 l 83 0 z "},"l":{"ha":386,"x_min":83,"x_max":301,"o":"m 83 0 l 83 987 l 301 987 l 301 0 l 83 0 z "},"m":{"ha":1240,"x_min":71,"x_max":1173,"o":"m 71 0 l 71 746 l 269 746 l 269 646 q 472 760 337 760 q 679 640 607 760 q 791 732 739 704 q 909 760 843 760 q 1105 691 1037 760 q 1173 492 1173 623 l 1173 0 l 958 0 l 958 404 q 936 520 958 485 q 854 555 914 555 q 726 404 727 555 l 726 0 l 511 0 l 511 404 q 489 520 511 485 q 407 555 467 555 q 279 404 279 555 l 279 0 l 71 0 z "},"n":{"ha":817,"x_min":72,"x_max":746,"o":"m 72 0 l 72 746 l 281 746 l 278 646 q 492 760 347 760 q 677 689 608 760 q 746 492 746 619 l 746 0 l 526 0 l 526 404 q 504 521 526 486 q 419 555 482 555 q 288 404 287 555 l 288 0 l 72 0 z "},"o":{"ha":846,"x_min":29,"x_max":817,"o":"m 29 375 q 58 523 29 453 q 143 648 87 593 q 418 765 260 765 q 666 684 579 765 q 785 529 753 603 q 817 378 817 454 q 702 95 817 210 q 421 -20 587 -20 q 169 68 253 -20 q 57 225 85 155 q 29 375 29 296 m 245 372 q 298 242 245 296 q 422 189 350 189 q 548 242 496 189 q 599 372 599 294 q 547 503 599 449 q 422 557 496 557 q 296 504 347 557 q 245 372 245 450 z "},"p":{"ha":900,"x_min":74,"x_max":871,"o":"m 74 -241 l 74 746 l 282 746 l 282 659 q 384 731 330 709 q 507 753 437 753 q 756 651 642 753 q 871 372 871 550 q 760 100 871 208 q 503 -8 648 -8 q 293 86 366 -8 l 293 -241 l 74 -241 m 285 374 q 336 240 285 294 q 465 186 387 186 q 597 240 543 186 q 652 371 652 294 q 597 502 652 450 q 458 554 542 554 q 336 502 387 554 q 285 374 285 450 z "},"q":{"ha":900,"x_min":33,"x_max":831,"o":"m 33 372 q 148 651 33 550 q 397 753 262 753 q 521 731 469 753 q 621 659 572 710 l 616 746 l 831 746 l 831 -241 l 611 -241 l 611 86 q 400 -8 537 -8 q 144 99 254 -8 q 33 372 33 207 m 253 371 q 306 241 253 296 q 437 186 359 186 q 567 239 515 186 q 619 374 619 293 q 569 502 619 450 q 444 554 518 554 q 307 502 361 554 q 253 371 253 449 z "},"r":{"ha":486,"x_min":72,"x_max":468,"o":"m 72 0 l 72 746 l 281 746 l 281 644 q 468 757 335 757 l 468 554 l 463 554 q 328 515 361 554 q 294 370 294 476 l 294 0 l 72 0 z "},"s":{"ha":655,"x_min":29,"x_max":612,"o":"m 29 222 l 236 222 l 236 215 q 258 164 236 183 q 317 144 281 144 q 392 210 392 144 q 350 265 392 248 q 166 320 285 283 q 47 519 47 357 q 124 700 47 631 q 332 768 200 768 q 521 706 450 768 q 593 539 593 644 l 395 539 q 329 608 382 608 q 279 592 297 608 q 261 547 261 575 q 287 497 261 511 q 408 456 313 482 q 558 379 504 429 q 612 239 612 329 q 531 53 612 125 q 314 -20 449 -20 q 115 44 191 -20 q 29 222 40 109 z "},"t":{"ha":433,"x_min":9,"x_max":425,"o":"m 9 582 l 9 746 l 104 746 l 104 987 l 326 987 l 326 746 l 425 746 l 425 582 l 326 582 l 326 0 l 104 0 l 104 582 l 9 582 z "},"u":{"ha":817,"x_min":69,"x_max":743,"o":"m 69 254 l 69 746 l 290 746 l 290 342 q 313 225 290 260 q 397 191 335 191 q 528 342 528 191 l 528 746 l 743 746 l 743 0 l 539 0 l 539 100 q 325 -14 470 -14 q 138 57 207 -14 q 69 254 69 127 z "},"v":{"ha":701,"x_min":-28,"x_max":730,"o":"m -28 746 l 212 746 l 351 264 l 498 746 l 730 746 l 460 0 l 239 0 l -28 746 z "},"w":{"ha":1044,"x_min":-18,"x_max":1086,"o":"m -18 746 l 205 746 l 318 302 l 437 746 l 628 746 l 750 302 l 864 746 l 1086 746 l 861 0 l 659 0 l 533 437 l 407 0 l 207 0 l -18 746 z "},"x":{"ha":758,"x_min":-39,"x_max":787,"o":"m -39 0 l 237 407 l -4 746 l 264 746 l 389 554 l 510 746 l 745 746 l 503 387 l 787 0 l 513 0 l 357 233 l 210 0 l -39 0 z "},"y":{"ha":739,"x_min":-18,"x_max":760,"o":"m -18 746 l 225 746 l 366 311 l 524 746 l 760 746 l 364 -241 l 143 -241 l 256 46 l -18 746 z "},"z":{"ha":614,"x_min":20,"x_max":579,"o":"m 20 0 l 20 155 l 326 553 l 20 553 l 20 746 l 574 746 l 574 570 l 302 193 l 579 193 l 579 0 l 20 0 z "},"{":{"ha":694,"x_min":107,"x_max":599,"o":"m 107 289 l 107 431 l 135 429 q 252 470 217 429 q 286 602 286 510 l 286 771 q 298 902 286 860 q 364 973 310 943 q 547 1003 418 1003 l 599 1002 l 599 860 l 567 861 q 472 833 493 861 q 450 725 450 806 l 450 562 q 422 423 450 467 q 310 359 395 379 q 422 296 393 340 q 450 158 450 253 l 450 -5 q 472 -113 450 -85 q 567 -140 494 -140 l 599 -139 l 599 -281 l 547 -282 q 437 -274 482 -282 q 352 -244 392 -267 q 299 -179 311 -222 q 286 -52 286 -136 l 286 119 q 252 251 286 211 q 135 290 218 290 l 107 289 z "},"|":{"ha":694,"x_min":278,"x_max":418,"o":"m 278 -328 l 278 1061 l 418 1061 l 418 -328 l 278 -328 z "},"}":{"ha":694,"x_min":97,"x_max":589,"o":"m 97 -139 l 129 -140 q 222 -112 199 -140 q 245 -5 245 -83 l 245 157 q 273 296 245 252 q 386 359 301 340 q 275 424 304 379 q 245 562 245 468 l 245 726 q 223 833 245 806 q 129 861 201 861 l 97 860 l 97 1002 l 143 1002 q 260 995 218 1002 q 343 966 302 989 q 396 900 383 943 q 410 771 410 856 l 410 600 q 444 469 410 509 q 561 429 478 429 l 589 431 l 589 289 l 564 289 q 444 251 477 289 q 410 119 410 212 l 410 -52 q 398 -181 410 -140 q 332 -252 386 -222 q 149 -282 278 -282 l 97 -281 l 97 -139 z "},"~":{"ha":1156,"x_min":121,"x_max":1038,"o":"m 121 283 l 121 433 q 383 530 265 530 q 479 521 439 530 q 610 481 519 511 q 723 446 700 452 q 783 440 746 440 q 905 466 843 440 q 1038 545 966 492 l 1038 395 q 906 325 970 349 q 781 301 843 301 q 652 323 718 301 q 518 368 586 345 q 382 390 443 391 q 260 365 321 390 q 121 283 199 339 z "}," ":{"ha":347,"x_min":0,"x_max":0,"o":""},"¡":{"ha":437,"x_min":107,"x_max":330,"o":"m 107 0 l 107 663 l 330 663 l 330 0 l 107 0 m 107 758 l 107 987 l 328 987 l 328 758 l 107 758 z "},"¢":{"ha":826,"x_min":29,"x_max":803,"o":"m 29 498 q 112 738 29 633 q 334 879 195 843 l 334 1038 l 497 1038 l 497 882 q 803 600 721 843 l 571 600 q 416 676 519 677 q 294 626 342 676 q 245 496 245 576 q 296 365 245 415 q 424 315 346 315 q 568 389 514 315 l 803 389 q 497 111 734 158 l 497 -39 l 325 -39 l 325 114 q 108 254 187 150 q 29 498 29 358 z "},"£":{"ha":826,"x_min":52,"x_max":821,"o":"m 52 390 l 52 566 l 140 566 q 107 700 107 635 q 204 915 107 826 q 447 1004 301 1004 q 677 921 589 1004 q 766 692 766 838 l 550 692 q 522 771 550 742 q 450 800 494 800 q 371 768 401 800 q 340 682 340 736 q 375 566 340 635 l 595 566 l 595 390 l 441 390 q 463 307 463 349 q 421 193 463 238 l 473 192 q 587 213 554 192 q 621 289 621 233 l 621 310 q 615 335 616 327 l 810 335 q 819 281 817 304 q 821 243 821 257 q 744 65 821 132 q 532 -1 668 -1 l 427 0 l 71 0 l 71 197 l 115 195 q 249 309 249 195 q 232 390 249 340 l 52 390 z "},"¤":{"ha":842,"x_min":46,"x_max":798,"o":"m 46 297 l 183 436 q 132 600 132 508 q 183 764 132 692 l 46 903 l 117 975 l 256 838 q 331 877 292 864 q 421 890 371 890 q 589 838 515 890 l 726 975 l 798 903 l 660 764 q 711 600 711 692 q 660 436 711 510 l 798 297 l 726 227 l 589 364 q 512 325 553 338 q 422 311 471 311 q 256 364 327 311 l 117 227 l 46 297 m 235 600 q 289 468 235 522 q 422 414 343 414 q 554 468 499 414 q 610 600 610 522 q 555 733 610 678 q 422 787 500 787 q 290 732 346 787 q 235 600 235 677 z "},"¥":{"ha":826,"x_min":17,"x_max":814,"o":"m 17 982 l 275 982 l 419 604 l 570 982 l 814 982 l 711 761 l 793 761 l 793 614 l 643 614 l 596 511 l 793 511 l 793 364 l 528 364 l 528 0 l 297 0 l 297 364 l 32 364 l 32 511 l 231 511 l 184 614 l 32 614 l 32 761 l 117 761 l 17 982 z "},"§":{"ha":694,"x_min":17,"x_max":677,"o":"m 17 425 q 143 611 17 554 q 62 775 62 679 q 137 945 62 884 q 347 1007 211 1007 q 554 941 478 1007 q 631 761 631 875 l 432 761 q 343 860 432 859 q 283 842 306 860 q 261 796 261 823 q 371 697 261 743 l 479 653 q 677 412 678 571 q 553 229 677 267 q 639 62 639 160 q 565 -104 639 -42 q 359 -165 490 -165 q 136 -100 214 -165 q 58 89 58 -35 l 252 89 q 279 9 252 37 q 355 -18 307 -18 q 416 2 393 -18 q 439 52 439 22 q 328 139 439 96 l 218 182 q 17 425 17 260 m 193 452 q 253 382 193 409 l 431 304 q 497 385 497 334 q 416 464 497 426 l 260 534 q 193 452 193 499 z "},"¨":{"ha":694,"x_min":153,"x_max":542,"o":"m 153 880 l 153 1047 l 306 1047 l 306 880 l 153 880 m 389 880 l 389 1047 l 542 1047 l 542 880 l 389 880 z "},"©":{"ha":1156,"x_min":75,"x_max":1083,"o":"m 75 497 q 222 853 75 704 q 578 1003 368 1003 q 937 854 789 1003 q 1083 497 1083 709 q 1046 304 1083 394 q 895 104 1008 215 q 578 -7 782 -7 q 387 31 476 -7 q 187 180 298 68 q 75 497 75 292 m 158 498 q 250 233 158 325 q 418 110 342 142 q 579 78 494 78 q 876 199 751 78 q 1000 498 1000 321 q 877 797 1000 673 q 579 920 754 920 q 282 798 401 920 q 190 659 222 736 q 158 498 158 582 m 307 494 q 382 718 307 636 q 581 800 457 800 q 753 747 685 800 q 822 608 822 693 l 694 608 q 659 682 689 656 q 578 708 628 708 q 481 654 517 708 q 446 498 446 600 q 583 294 446 294 q 699 404 686 294 l 829 404 q 759 254 829 311 q 579 196 689 196 q 380 276 453 196 q 307 494 307 355 z "},"ª":{"ha":675,"x_min":22,"x_max":619,"o":"m 22 729 q 106 919 22 843 q 298 994 191 994 q 456 929 400 994 l 456 987 l 619 987 l 619 465 l 461 465 l 461 524 q 294 463 392 463 q 109 533 196 463 q 22 729 22 604 m 186 729 q 228 638 186 675 q 332 602 269 602 q 424 637 386 602 q 461 728 461 673 q 422 821 461 783 q 325 859 383 859 q 226 821 267 859 q 186 729 186 783 z "},"«":{"ha":777,"x_min":106,"x_max":672,"o":"m 106 382 l 241 582 l 408 582 l 273 380 l 408 176 l 241 176 l 106 382 m 370 382 l 504 582 l 672 582 l 538 380 l 672 176 l 504 176 l 370 382 z "},"¬":{"ha":1156,"x_min":172,"x_max":985,"o":"m 172 453 l 172 586 l 985 586 l 985 245 l 850 245 l 850 453 l 172 453 z "},"­":{"ha":486,"x_min":54,"x_max":428,"o":"m 54 273 l 54 472 l 428 472 l 428 273 l 54 273 z "},"®":{"ha":1156,"x_min":75,"x_max":1083,"o":"m 75 497 q 146 755 75 635 q 328 940 216 876 q 578 1003 440 1003 q 940 851 791 1003 q 1083 497 1083 705 q 933 139 1083 285 q 578 -7 783 -7 q 385 32 476 -7 q 184 182 293 71 q 75 497 75 293 m 158 498 q 281 201 158 325 q 578 77 404 77 q 737 109 661 77 q 906 230 812 140 q 1000 490 1000 319 q 879 795 1000 671 q 579 920 757 920 q 286 800 406 920 q 158 498 158 672 m 370 228 l 370 787 l 589 787 q 828 627 827 787 q 796 532 828 571 q 705 478 764 493 l 831 228 l 679 228 l 572 457 l 505 457 l 505 228 l 370 228 m 505 539 l 572 539 q 688 618 688 539 q 566 701 688 701 l 505 701 l 505 539 z "},"¯":{"ha":412,"x_min":-195,"x_max":195,"o":"m -195 83 l -195 189 l 195 189 l 195 83 l -195 83 z "},"°":{"ha":456,"x_min":24,"x_max":435,"o":"m 24 786 q 83 932 24 872 q 229 993 142 993 q 375 933 315 993 q 435 786 435 873 q 374 641 435 701 q 228 581 314 581 q 83 640 143 581 q 24 786 24 700 m 110 787 q 144 703 110 737 q 229 668 179 668 q 313 704 279 668 q 347 787 347 739 q 313 871 347 836 q 229 905 278 905 q 145 871 180 905 q 110 787 110 838 z "},"±":{"ha":1156,"x_min":172,"x_max":985,"o":"m 172 -1 l 172 134 l 985 134 l 985 -1 l 172 -1 m 172 473 l 172 608 l 510 608 l 510 829 l 647 829 l 647 608 l 985 608 l 985 473 l 647 473 l 647 253 l 510 253 l 510 473 l 172 473 z "},"²":{"ha":826,"x_min":72,"x_max":764,"o":"m 72 631 q 166 901 72 800 q 418 1002 260 1002 q 671 922 578 1002 q 764 711 764 843 q 674 460 764 589 q 415 221 585 330 l 761 221 l 761 0 l 78 0 l 78 210 q 403 458 293 337 q 513 685 513 579 q 488 765 513 736 q 416 794 463 794 q 342 758 369 794 q 315 653 315 721 l 317 631 l 72 631 z "},"³":{"ha":826,"x_min":65,"x_max":760,"o":"m 65 297 l 309 297 l 309 285 q 337 216 309 240 q 416 192 366 192 q 494 220 467 192 q 522 294 522 248 q 354 404 522 404 l 306 403 l 306 589 l 330 587 q 485 708 484 587 q 464 779 485 754 q 406 804 443 804 q 330 722 330 804 l 330 707 l 94 707 q 179 926 94 846 q 408 1007 264 1007 q 625 931 543 1007 q 707 733 707 854 q 567 533 707 583 q 760 304 760 477 q 665 72 760 164 q 415 -20 571 -20 q 157 62 248 -20 q 65 297 65 144 z "},"´":{"ha":694,"x_min":237,"x_max":546,"o":"m 237 840 l 371 1092 l 546 1092 l 334 840 l 237 840 z "},"µ":{"ha":847,"x_min":-43,"x_max":803,"o":"m -43 -297 l 139 741 l 335 741 l 283 446 q 268 339 273 387 q 262 264 262 292 q 378 139 262 139 q 485 198 447 139 q 546 392 522 257 l 607 741 l 803 741 l 672 0 l 490 0 l 503 79 q 357 -22 448 -22 q 212 60 268 -22 l 151 -297 l -43 -297 z "},"¶":{"ha":694,"x_min":28,"x_max":667,"o":"m 28 766 q 100 938 28 872 q 293 1003 172 1003 l 667 1003 l 667 928 l 590 928 l 590 0 l 488 0 l 488 928 l 379 928 l 379 0 l 277 0 l 277 532 q 95 597 163 532 q 28 766 28 663 z "},"¸":{"ha":694,"x_min":165,"x_max":526,"o":"m 165 -201 q 340 -231 285 -231 q 408 -182 408 -231 q 326 -136 408 -136 l 288 -138 l 288 0 l 355 0 l 355 -58 l 366 -58 q 526 -183 527 -58 q 346 -313 526 -312 q 165 -285 275 -313 l 165 -201 z "},"¹":{"ha":826,"x_min":163,"x_max":567,"o":"m 163 804 l 163 987 l 567 987 l 567 0 l 336 0 l 336 804 l 163 804 z "},"º":{"ha":634,"x_min":22,"x_max":612,"o":"m 22 728 q 107 920 22 839 q 314 1002 196 1002 q 524 923 436 1002 q 612 729 612 844 q 527 532 612 612 q 315 452 441 452 q 106 533 191 452 q 22 728 22 614 m 184 726 q 223 635 184 672 q 317 597 262 597 q 410 635 371 597 q 449 726 449 672 q 411 818 449 781 q 317 856 374 856 q 223 818 262 856 q 184 726 184 781 z "},"»":{"ha":777,"x_min":106,"x_max":672,"o":"m 106 176 l 241 380 l 106 582 l 273 582 l 408 382 l 273 176 l 106 176 m 370 176 l 504 380 l 370 582 l 538 582 l 672 382 l 538 176 l 370 176 z "},"¿":{"ha":743,"x_min":52,"x_max":713,"o":"m 52 273 q 79 394 52 341 q 159 496 106 447 q 261 589 212 546 q 304 677 304 633 l 539 677 l 541 661 q 515 568 541 612 q 421 453 489 524 q 333 355 354 383 q 311 278 311 326 q 392 199 311 199 q 475 313 475 199 l 475 326 l 713 326 l 713 307 q 617 71 713 161 q 368 -20 521 -20 q 140 63 228 -20 q 52 273 52 146 m 310 761 l 310 987 l 533 987 l 533 761 l 310 761 z "},"À":{"ha":836,"x_min":-60,"x_max":896,"o":"m -60 0 l 319 987 l 517 987 l 896 0 l 629 0 l 581 143 l 254 143 l 204 0 l -60 0 m 319 347 l 515 347 l 418 664 l 319 347 m 219 1329 l 394 1329 l 528 1078 l 431 1078 l 219 1329 z "},"Á":{"ha":836,"x_min":-60,"x_max":896,"o":"m -60 0 l 319 987 l 517 987 l 896 0 l 629 0 l 581 143 l 254 143 l 204 0 l -60 0 m 319 347 l 515 347 l 418 664 l 319 347 m 308 1078 l 441 1329 l 616 1329 l 404 1078 l 308 1078 z "},"Â":{"ha":836,"x_min":-60,"x_max":896,"o":"m -60 0 l 319 987 l 517 987 l 896 0 l 629 0 l 581 143 l 254 143 l 204 0 l -60 0 m 319 347 l 515 347 l 418 664 l 319 347 m 204 1078 l 337 1329 l 498 1329 l 631 1078 l 536 1078 l 418 1225 l 298 1078 l 204 1078 z "},"Ã":{"ha":836,"x_min":-60,"x_max":896,"o":"m -60 0 l 319 987 l 517 987 l 896 0 l 629 0 l 581 143 l 254 143 l 204 0 l -60 0 m 319 347 l 515 347 l 418 664 l 319 347 m 203 1109 q 341 1270 236 1270 q 369 1268 355 1270 q 399 1261 383 1267 l 463 1243 q 500 1238 479 1238 q 558 1296 543 1238 l 633 1296 q 492 1131 598 1131 q 441 1139 469 1131 l 382 1156 q 358 1162 368 1160 q 337 1164 347 1164 q 277 1109 294 1164 l 203 1109 z "},"Ä":{"ha":836,"x_min":-60,"x_max":896,"o":"m -60 0 l 319 987 l 517 987 l 896 0 l 629 0 l 581 143 l 254 143 l 204 0 l -60 0 m 319 347 l 515 347 l 418 664 l 319 347 m 223 1118 l 223 1284 l 376 1284 l 376 1118 l 223 1118 m 459 1118 l 459 1284 l 612 1284 l 612 1118 l 459 1118 z "},"Å":{"ha":836,"x_min":-60,"x_max":896,"o":"m -60 0 l 319 979 l 517 979 l 896 0 l 629 0 l 581 143 l 254 143 l 204 0 l -60 0 m 258 1177 q 306 1290 258 1243 q 418 1337 353 1337 q 532 1290 484 1337 q 579 1177 579 1243 q 532 1064 579 1112 q 418 1017 485 1017 q 306 1064 353 1017 q 258 1177 258 1112 m 319 347 l 515 347 l 418 664 l 319 347 m 351 1177 q 371 1129 351 1149 q 419 1109 390 1109 q 467 1129 447 1109 q 486 1177 486 1149 q 466 1223 486 1203 q 419 1243 446 1243 q 372 1224 393 1243 q 351 1177 351 1204 z "},"Æ":{"ha":1242,"x_min":-66,"x_max":1166,"o":"m -66 0 l 472 987 l 1166 987 l 1166 772 l 871 772 l 871 608 l 1166 608 l 1166 386 l 871 386 l 871 215 l 1166 215 l 1166 0 l 631 0 l 631 189 l 313 189 l 218 0 l -66 0 m 416 386 l 631 386 l 631 772 l 606 772 l 416 386 z "},"Ç":{"ha":1071,"x_min":33,"x_max":1035,"o":"m 33 504 q 182 861 33 715 q 543 1007 332 1007 q 853 901 718 1007 q 1035 612 987 794 l 774 612 q 545 761 693 761 q 358 686 435 761 q 282 503 282 611 q 359 306 282 387 q 541 225 436 225 q 768 367 686 225 l 1031 367 q 851 84 982 188 q 541 -20 720 -20 q 178 133 322 -20 q 33 504 33 286 m 355 -201 q 530 -231 474 -231 q 597 -182 597 -231 q 515 -136 597 -136 l 477 -138 l 477 0 l 545 0 l 545 -58 l 555 -58 q 715 -183 716 -58 q 535 -313 715 -312 q 355 -285 465 -313 l 355 -201 z "},"È":{"ha":687,"x_min":77,"x_max":612,"o":"m 77 0 l 77 987 l 612 987 l 612 770 l 318 770 l 318 610 l 612 610 l 612 390 l 318 390 l 318 218 l 612 218 l 612 0 l 77 0 m 146 1329 l 321 1329 l 454 1078 l 358 1078 l 146 1329 z "},"É":{"ha":687,"x_min":77,"x_max":612,"o":"m 77 0 l 77 987 l 612 987 l 612 770 l 318 770 l 318 610 l 612 610 l 612 390 l 318 390 l 318 218 l 612 218 l 612 0 l 77 0 m 235 1078 l 368 1329 l 543 1329 l 331 1078 l 235 1078 z "},"Ê":{"ha":687,"x_min":77,"x_max":612,"o":"m 77 0 l 77 987 l 612 987 l 612 770 l 318 770 l 318 610 l 612 610 l 612 390 l 318 390 l 318 218 l 612 218 l 612 0 l 77 0 m 131 1078 l 264 1329 l 425 1329 l 558 1078 l 463 1078 l 345 1225 l 225 1078 l 131 1078 z "},"Ë":{"ha":687,"x_min":77,"x_max":612,"o":"m 77 0 l 77 987 l 612 987 l 612 770 l 318 770 l 318 610 l 612 610 l 612 390 l 318 390 l 318 218 l 612 218 l 612 0 l 77 0 m 150 1118 l 150 1284 l 303 1284 l 303 1118 l 150 1118 m 386 1118 l 386 1284 l 539 1284 l 539 1118 l 386 1118 z "},"Ì":{"ha":398,"x_min":1,"x_max":319,"o":"m 78 0 l 78 987 l 319 987 l 319 0 l 78 0 m 1 1329 l 176 1329 l 310 1078 l 214 1078 l 1 1329 z "},"Í":{"ha":398,"x_min":78,"x_max":399,"o":"m 78 0 l 78 987 l 319 987 l 319 0 l 78 0 m 90 1078 l 224 1329 l 399 1329 l 186 1078 l 90 1078 z "},"Î":{"ha":398,"x_min":-14,"x_max":414,"o":"m 78 0 l 78 987 l 319 987 l 319 0 l 78 0 m -14 1078 l 119 1329 l 281 1329 l 414 1078 l 318 1078 l 200 1225 l 81 1078 l -14 1078 z "},"Ï":{"ha":398,"x_min":5,"x_max":395,"o":"m 78 0 l 78 987 l 319 987 l 319 0 l 78 0 m 5 1118 l 5 1284 l 159 1284 l 159 1118 l 5 1118 m 241 1118 l 241 1284 l 395 1284 l 395 1118 l 241 1118 z "},"Ñ":{"ha":980,"x_min":79,"x_max":901,"o":"m 79 0 l 79 987 l 297 987 l 660 439 l 660 987 l 901 987 l 901 0 l 689 0 l 321 550 l 321 0 l 79 0 m 275 1109 q 414 1270 309 1270 q 441 1268 427 1270 q 472 1261 456 1267 l 535 1243 q 572 1238 552 1238 q 631 1296 615 1238 l 705 1296 q 564 1131 671 1131 q 514 1139 542 1131 l 454 1156 q 430 1162 441 1160 q 410 1164 420 1164 q 350 1109 367 1164 l 275 1109 z "},"Ò":{"ha":1093,"x_min":39,"x_max":1054,"o":"m 39 504 q 189 861 39 713 q 549 1006 336 1006 q 865 896 753 1006 q 1015 694 977 786 q 1054 500 1054 603 q 909 133 1054 283 q 547 -18 764 -18 q 182 134 326 -18 q 39 504 39 286 m 288 501 q 365 306 288 386 q 547 227 441 227 q 730 303 656 227 q 804 501 804 380 q 729 685 804 608 q 550 761 654 761 q 364 686 440 761 q 288 501 288 611 m 349 1329 l 524 1329 l 657 1078 l 561 1078 l 349 1329 z "},"Ó":{"ha":1093,"x_min":39,"x_max":1054,"o":"m 39 504 q 189 861 39 713 q 549 1006 336 1006 q 865 896 753 1006 q 1015 694 977 786 q 1054 500 1054 603 q 909 133 1054 283 q 547 -18 764 -18 q 182 134 326 -18 q 39 504 39 286 m 288 501 q 365 306 288 386 q 547 227 441 227 q 730 303 656 227 q 804 501 804 380 q 729 685 804 608 q 550 761 654 761 q 364 686 440 761 q 288 501 288 611 m 437 1078 l 571 1329 l 746 1329 l 534 1078 l 437 1078 z "},"Ô":{"ha":1093,"x_min":39,"x_max":1054,"o":"m 39 504 q 189 861 39 713 q 549 1006 336 1006 q 865 896 753 1006 q 1015 694 977 786 q 1054 500 1054 603 q 909 133 1054 283 q 547 -18 764 -18 q 182 134 326 -18 q 39 504 39 286 m 288 501 q 365 306 288 386 q 547 227 441 227 q 730 303 656 227 q 804 501 804 380 q 729 685 804 608 q 550 761 654 761 q 364 686 440 761 q 288 501 288 611 m 334 1078 l 467 1329 l 628 1329 l 761 1078 l 665 1078 l 547 1225 l 428 1078 l 334 1078 z "},"Õ":{"ha":1093,"x_min":39,"x_max":1054,"o":"m 39 504 q 189 861 39 713 q 549 1006 336 1006 q 865 896 753 1006 q 1015 694 977 786 q 1054 500 1054 603 q 909 133 1054 283 q 547 -18 764 -18 q 182 134 326 -18 q 39 504 39 286 m 288 501 q 365 306 288 386 q 547 227 441 227 q 730 303 656 227 q 804 501 804 380 q 729 685 804 608 q 550 761 654 761 q 364 686 440 761 q 288 501 288 611 m 332 1109 q 471 1270 366 1270 q 498 1268 484 1270 q 529 1261 513 1267 l 592 1243 q 629 1238 609 1238 q 688 1296 672 1238 l 762 1296 q 621 1131 728 1131 q 571 1139 599 1131 l 511 1156 q 487 1162 498 1160 q 467 1164 477 1164 q 407 1109 424 1164 l 332 1109 z "},"Ö":{"ha":1093,"x_min":39,"x_max":1054,"o":"m 39 504 q 189 861 39 713 q 549 1006 336 1006 q 865 896 753 1006 q 1015 694 977 786 q 1054 500 1054 603 q 909 133 1054 283 q 547 -18 764 -18 q 182 134 326 -18 q 39 504 39 286 m 288 501 q 365 306 288 386 q 547 227 441 227 q 730 303 656 227 q 804 501 804 380 q 729 685 804 608 q 550 761 654 761 q 364 686 440 761 q 288 501 288 611 m 353 1118 l 353 1284 l 506 1284 l 506 1118 l 353 1118 m 589 1118 l 589 1284 l 742 1284 l 742 1118 l 589 1118 z "},"Ø":{"ha":1093,"x_min":-20,"x_max":1068,"o":"m -20 24 l 136 191 q 39 494 39 330 q 188 859 39 713 q 545 1006 338 1006 q 819 925 696 1006 l 950 1067 l 1068 958 l 940 817 q 1054 496 1054 676 q 908 133 1054 286 q 534 -20 762 -20 q 250 74 380 -20 l 98 -86 l -20 24 m 288 494 q 314 382 288 441 l 647 741 q 550 761 598 762 q 362 685 437 761 q 288 494 288 608 m 424 260 q 550 225 493 225 q 730 303 654 225 q 806 501 806 382 q 770 633 806 568 l 424 260 z "},"Ù":{"ha":882,"x_min":77,"x_max":803,"o":"m 77 370 l 77 987 l 319 987 l 319 379 q 347 253 319 294 q 436 211 375 211 q 561 379 561 211 l 561 987 l 803 987 l 803 370 q 703 87 803 191 q 435 -16 603 -16 q 171 85 265 -16 q 77 370 77 185 m 243 1329 l 418 1329 l 551 1078 l 455 1078 l 243 1329 z "},"Ú":{"ha":882,"x_min":77,"x_max":803,"o":"m 77 370 l 77 987 l 319 987 l 319 379 q 347 253 319 294 q 436 211 375 211 q 561 379 561 211 l 561 987 l 803 987 l 803 370 q 703 87 803 191 q 435 -16 603 -16 q 171 85 265 -16 q 77 370 77 185 m 332 1078 l 465 1329 l 640 1329 l 428 1078 l 332 1078 z "},"Û":{"ha":882,"x_min":77,"x_max":803,"o":"m 77 370 l 77 987 l 319 987 l 319 379 q 347 253 319 294 q 436 211 375 211 q 561 379 561 211 l 561 987 l 803 987 l 803 370 q 703 87 803 191 q 435 -16 603 -16 q 171 85 265 -16 q 77 370 77 185 m 228 1078 l 361 1329 l 522 1329 l 655 1078 l 559 1078 l 441 1225 l 322 1078 l 228 1078 z "},"Ü":{"ha":882,"x_min":77,"x_max":803,"o":"m 77 370 l 77 987 l 319 987 l 319 379 q 347 253 319 294 q 436 211 375 211 q 561 379 561 211 l 561 987 l 803 987 l 803 370 q 703 87 803 191 q 435 -16 603 -16 q 171 85 265 -16 q 77 370 77 185 m 247 1118 l 247 1284 l 400 1284 l 400 1118 l 247 1118 m 483 1118 l 483 1284 l 636 1284 l 636 1118 l 483 1118 z "},"Ý":{"ha":713,"x_min":-49,"x_max":762,"o":"m 309 1089 l 443 1341 l 618 1341 l 406 1089 l 309 1089 m -49 987 l 216 987 l 359 625 l 510 987 l 762 987 l 475 366 l 475 0 l 232 0 l 232 366 l -49 987 z "},"ß":{"ha":916,"x_min":64,"x_max":872,"o":"m 64 0 l 64 633 q 157 910 64 815 q 429 1004 250 1004 q 657 931 571 1004 q 743 745 743 859 q 647 562 743 631 q 812 479 753 549 q 872 300 872 410 q 775 73 872 162 q 525 -17 679 -17 q 290 82 372 -17 l 290 0 l 64 0 m 290 277 l 458 277 q 539 205 467 206 q 607 231 581 205 q 633 298 633 256 q 588 392 633 369 q 436 415 543 415 l 364 418 l 364 606 q 500 704 500 606 q 473 767 500 741 q 404 793 446 793 q 313 750 336 793 q 290 611 290 708 l 290 277 z "},"à":{"ha":900,"x_min":29,"x_max":827,"o":"m 29 376 q 142 648 29 539 q 397 757 254 757 q 607 663 534 757 l 607 746 l 827 746 l 827 0 l 614 0 l 614 83 q 514 16 565 36 q 393 -4 463 -4 q 144 97 258 -4 q 29 376 29 199 m 249 378 q 303 247 249 298 q 441 195 358 195 q 564 247 513 195 q 615 375 615 298 q 563 509 615 456 q 433 562 511 562 q 302 509 355 562 q 249 378 249 456 m 275 1092 l 450 1092 l 583 840 l 487 840 l 275 1092 z "},"á":{"ha":900,"x_min":29,"x_max":827,"o":"m 29 376 q 142 648 29 539 q 397 757 254 757 q 607 663 534 757 l 607 746 l 827 746 l 827 0 l 614 0 l 614 83 q 514 16 565 36 q 393 -4 463 -4 q 144 97 258 -4 q 29 376 29 199 m 249 378 q 303 247 249 298 q 441 195 358 195 q 564 247 513 195 q 615 375 615 298 q 563 509 615 456 q 433 562 511 562 q 302 509 355 562 q 249 378 249 456 m 363 840 l 497 1092 l 672 1092 l 460 840 l 363 840 z "},"â":{"ha":900,"x_min":29,"x_max":827,"o":"m 29 376 q 142 648 29 539 q 397 757 254 757 q 607 663 534 757 l 607 746 l 827 746 l 827 0 l 614 0 l 614 83 q 514 16 565 36 q 393 -4 463 -4 q 144 97 258 -4 q 29 376 29 199 m 249 378 q 303 247 249 298 q 441 195 358 195 q 564 247 513 195 q 615 375 615 298 q 563 509 615 456 q 433 562 511 562 q 302 509 355 562 q 249 378 249 456 m 260 840 l 393 1092 l 554 1092 l 687 840 l 591 840 l 473 987 l 354 840 l 260 840 z "},"ã":{"ha":900,"x_min":29,"x_max":827,"o":"m 29 376 q 142 648 29 539 q 397 757 254 757 q 607 663 534 757 l 607 746 l 827 746 l 827 0 l 614 0 l 614 83 q 514 16 565 36 q 393 -4 463 -4 q 144 97 258 -4 q 29 376 29 199 m 249 378 q 303 247 249 298 q 441 195 358 195 q 564 247 513 195 q 615 375 615 298 q 563 509 615 456 q 433 562 511 562 q 302 509 355 562 q 249 378 249 456 m 258 872 q 397 1032 292 1032 q 425 1031 410 1032 q 455 1023 439 1029 l 518 1006 q 555 1000 535 1000 q 614 1059 598 1000 l 688 1059 q 547 893 654 893 q 497 901 525 893 l 437 918 q 413 924 424 922 q 393 926 403 926 q 333 872 350 926 l 258 872 z "},"ä":{"ha":900,"x_min":29,"x_max":827,"o":"m 29 376 q 142 648 29 539 q 397 757 254 757 q 607 663 534 757 l 607 746 l 827 746 l 827 0 l 614 0 l 614 83 q 514 16 565 36 q 393 -4 463 -4 q 144 97 258 -4 q 29 376 29 199 m 249 378 q 303 247 249 298 q 441 195 358 195 q 564 247 513 195 q 615 375 615 298 q 563 509 615 456 q 433 562 511 562 q 302 509 355 562 q 249 378 249 456 m 279 880 l 279 1047 l 432 1047 l 432 880 l 279 880 m 515 880 l 515 1047 l 668 1047 l 668 880 l 515 880 z "},"å":{"ha":900,"x_min":29,"x_max":827,"o":"m 29 376 q 142 648 29 539 q 397 757 254 757 q 607 663 534 757 l 607 746 l 827 746 l 827 0 l 614 0 l 614 83 q 514 16 565 36 q 393 -4 463 -4 q 144 97 258 -4 q 29 376 29 199 m 249 378 q 303 247 249 298 q 441 195 358 195 q 564 247 513 195 q 615 375 615 298 q 563 509 615 456 q 433 562 511 562 q 302 509 355 562 q 249 378 249 456 m 258 961 q 306 1075 258 1027 q 418 1122 353 1122 q 532 1075 484 1122 q 579 961 579 1028 q 532 849 579 896 q 418 802 485 802 q 306 849 353 802 q 258 961 258 896 m 351 961 q 371 914 351 933 q 418 895 390 895 q 465 914 444 895 q 486 961 486 933 q 465 1008 486 987 q 418 1029 444 1029 q 371 1010 390 1029 q 351 961 351 990 z "},"æ":{"ha":1413,"x_min":29,"x_max":1386,"o":"m 29 376 q 113 624 29 542 q 258 730 197 705 q 395 755 319 755 q 586 672 511 755 l 586 746 l 770 746 l 770 672 q 1002 764 861 764 q 1279 641 1171 764 q 1386 315 1386 518 l 1386 292 l 823 292 q 996 172 855 172 q 1111 215 1063 172 l 1353 215 q 1207 39 1299 98 q 989 -21 1116 -21 q 770 78 860 -21 l 770 0 l 586 0 l 586 78 q 382 -4 509 -4 q 140 97 251 -4 q 29 376 29 199 m 241 378 q 294 247 241 298 q 428 195 346 195 q 547 247 496 195 q 597 375 597 298 q 547 508 597 456 q 428 561 497 561 q 294 509 346 561 q 241 378 241 457 m 818 441 l 1166 441 q 990 567 1135 566 q 872 532 920 567 q 818 441 825 497 z "},"ç":{"ha":838,"x_min":29,"x_max":803,"o":"m 29 378 q 58 525 29 456 q 173 682 87 595 q 418 768 258 768 q 659 693 559 768 q 803 476 758 618 l 571 476 q 416 555 524 555 q 294 506 342 555 q 245 378 245 456 q 294 243 245 293 q 424 193 343 193 q 568 267 514 193 l 803 267 q 660 57 762 133 q 421 -20 558 -20 q 141 98 253 -20 q 29 378 29 216 m 237 -201 q 412 -231 357 -231 q 480 -182 480 -231 q 398 -136 480 -136 l 359 -138 l 359 0 l 427 0 l 427 -58 l 437 -58 q 598 -183 599 -58 q 418 -313 598 -312 q 237 -285 347 -313 l 237 -201 z "},"è":{"ha":846,"x_min":29,"x_max":818,"o":"m 29 378 q 58 526 29 456 q 174 682 87 596 q 418 768 260 768 q 708 647 598 768 q 818 319 818 526 l 818 296 l 256 296 q 428 175 285 175 q 489 185 461 175 q 542 216 517 195 l 783 216 q 421 -18 675 -18 q 141 100 253 -18 q 29 378 29 218 m 249 452 l 597 452 q 421 570 557 570 q 307 538 352 570 q 249 452 261 507 m 225 1092 l 400 1092 l 534 840 l 437 840 l 225 1092 z "},"é":{"ha":846,"x_min":29,"x_max":818,"o":"m 29 378 q 58 526 29 456 q 174 682 87 596 q 418 768 260 768 q 708 647 598 768 q 818 319 818 526 l 818 296 l 256 296 q 428 175 285 175 q 489 185 461 175 q 542 216 517 195 l 783 216 q 421 -18 675 -18 q 141 100 253 -18 q 29 378 29 218 m 249 452 l 597 452 q 421 570 557 570 q 307 538 352 570 q 249 452 261 507 m 314 840 l 448 1092 l 623 1092 l 410 840 l 314 840 z "},"ê":{"ha":846,"x_min":29,"x_max":818,"o":"m 29 378 q 58 526 29 456 q 174 682 87 596 q 418 768 260 768 q 708 647 598 768 q 818 319 818 526 l 818 296 l 256 296 q 428 175 285 175 q 489 185 461 175 q 542 216 517 195 l 783 216 q 421 -18 675 -18 q 141 100 253 -18 q 29 378 29 218 m 249 452 l 597 452 q 421 570 557 570 q 307 538 352 570 q 249 452 261 507 m 210 840 l 343 1092 l 505 1092 l 637 840 l 542 840 l 424 987 l 304 840 l 210 840 z "},"ë":{"ha":846,"x_min":29,"x_max":818,"o":"m 29 378 q 58 526 29 456 q 174 682 87 596 q 418 768 260 768 q 708 647 598 768 q 818 319 818 526 l 818 296 l 256 296 q 428 175 285 175 q 489 185 461 175 q 542 216 517 195 l 783 216 q 421 -18 675 -18 q 141 100 253 -18 q 29 378 29 218 m 249 452 l 597 452 q 421 570 557 570 q 307 538 352 570 q 249 452 261 507 m 229 880 l 229 1047 l 382 1047 l 382 880 l 229 880 m 465 880 l 465 1047 l 618 1047 l 618 880 l 465 880 z "},"ì":{"ha":386,"x_min":-5,"x_max":303,"o":"m 83 0 l 83 746 l 301 746 l 301 0 l 83 0 m -5 1092 l 170 1092 l 303 840 l 207 840 l -5 1092 z "},"í":{"ha":386,"x_min":83,"x_max":392,"o":"m 83 0 l 83 746 l 301 746 l 301 0 l 83 0 m 83 840 l 217 1092 l 392 1092 l 180 840 l 83 840 z "},"î":{"ha":386,"x_min":-20,"x_max":407,"o":"m 83 0 l 83 746 l 301 746 l 301 0 l 83 0 m -20 840 l 113 1092 l 274 1092 l 407 840 l 311 840 l 193 987 l 74 840 l -20 840 z "},"ï":{"ha":386,"x_min":-1,"x_max":388,"o":"m 83 0 l 83 746 l 301 746 l 301 0 l 83 0 m -1 880 l -1 1047 l 152 1047 l 152 880 l -1 880 m 235 880 l 235 1047 l 388 1047 l 388 880 l 235 880 z "},"ñ":{"ha":817,"x_min":72,"x_max":746,"o":"m 72 0 l 72 746 l 281 746 l 278 646 q 492 760 347 760 q 677 689 608 760 q 746 492 746 619 l 746 0 l 526 0 l 526 404 q 504 521 526 486 q 419 555 482 555 q 288 404 287 555 l 288 0 l 72 0 m 193 872 q 332 1032 227 1032 q 359 1031 345 1032 q 390 1023 374 1029 l 453 1006 q 490 1000 470 1000 q 549 1059 533 1000 l 623 1059 q 482 893 589 893 q 432 901 460 893 l 372 918 q 348 924 359 922 q 328 926 338 926 q 268 872 285 926 l 193 872 z "},"ò":{"ha":846,"x_min":29,"x_max":817,"o":"m 29 375 q 58 523 29 453 q 143 648 87 593 q 418 765 260 765 q 666 684 579 765 q 785 529 753 603 q 817 378 817 454 q 702 95 817 210 q 421 -20 587 -20 q 169 68 253 -20 q 57 225 85 155 q 29 375 29 296 m 245 372 q 298 242 245 296 q 422 189 350 189 q 548 242 496 189 q 599 372 599 294 q 547 503 599 449 q 422 557 496 557 q 296 504 347 557 q 245 372 245 450 m 225 1092 l 400 1092 l 534 840 l 437 840 l 225 1092 z "},"ó":{"ha":846,"x_min":29,"x_max":817,"o":"m 29 375 q 58 523 29 453 q 143 648 87 593 q 418 765 260 765 q 666 684 579 765 q 785 529 753 603 q 817 378 817 454 q 702 95 817 210 q 421 -20 587 -20 q 169 68 253 -20 q 57 225 85 155 q 29 375 29 296 m 245 372 q 298 242 245 296 q 422 189 350 189 q 548 242 496 189 q 599 372 599 294 q 547 503 599 449 q 422 557 496 557 q 296 504 347 557 q 245 372 245 450 m 314 840 l 448 1092 l 623 1092 l 410 840 l 314 840 z "},"ô":{"ha":846,"x_min":29,"x_max":817,"o":"m 29 375 q 58 523 29 453 q 143 648 87 593 q 418 765 260 765 q 666 684 579 765 q 785 529 753 603 q 817 378 817 454 q 702 95 817 210 q 421 -20 587 -20 q 169 68 253 -20 q 57 225 85 155 q 29 375 29 296 m 245 372 q 298 242 245 296 q 422 189 350 189 q 548 242 496 189 q 599 372 599 294 q 547 503 599 449 q 422 557 496 557 q 296 504 347 557 q 245 372 245 450 m 210 840 l 343 1092 l 505 1092 l 637 840 l 542 840 l 424 987 l 304 840 l 210 840 z "},"õ":{"ha":846,"x_min":29,"x_max":817,"o":"m 29 375 q 58 523 29 453 q 143 648 87 593 q 418 765 260 765 q 666 684 579 765 q 785 529 753 603 q 817 378 817 454 q 702 95 817 210 q 421 -20 587 -20 q 169 68 253 -20 q 57 225 85 155 q 29 375 29 296 m 245 372 q 298 242 245 296 q 422 189 350 189 q 548 242 496 189 q 599 372 599 294 q 547 503 599 449 q 422 557 496 557 q 296 504 347 557 q 245 372 245 450 m 209 872 q 347 1032 242 1032 q 375 1031 361 1032 q 406 1023 389 1029 l 469 1006 q 506 1000 486 1000 q 564 1059 549 1000 l 639 1059 q 498 893 604 893 q 448 901 475 893 l 388 918 q 364 924 374 922 q 343 926 353 926 q 283 872 300 926 l 209 872 z "},"ö":{"ha":846,"x_min":29,"x_max":817,"o":"m 29 375 q 58 523 29 453 q 143 648 87 593 q 418 765 260 765 q 666 684 579 765 q 785 529 753 603 q 817 378 817 454 q 702 95 817 210 q 421 -20 587 -20 q 169 68 253 -20 q 57 225 85 155 q 29 375 29 296 m 245 372 q 298 242 245 296 q 422 189 350 189 q 548 242 496 189 q 599 372 599 294 q 547 503 599 449 q 422 557 496 557 q 296 504 347 557 q 245 372 245 450 m 229 880 l 229 1047 l 382 1047 l 382 880 l 229 880 m 465 880 l 465 1047 l 618 1047 l 618 880 l 465 880 z "},"÷":{"ha":1156,"x_min":172,"x_max":985,"o":"m 172 347 l 172 482 l 985 482 l 985 347 l 172 347 m 476 147 q 506 220 476 190 q 579 250 536 250 q 652 220 622 250 q 682 147 682 191 q 652 76 682 106 q 579 46 623 46 q 507 75 538 46 q 476 147 476 104 m 476 681 q 506 753 476 724 q 579 783 536 783 q 652 753 622 783 q 682 681 682 724 q 653 609 682 640 q 579 578 624 578 q 506 608 536 578 q 476 681 476 638 z "},"ø":{"ha":846,"x_min":-22,"x_max":835,"o":"m -22 21 l 100 149 q 29 374 29 261 q 142 648 29 532 q 425 764 256 764 q 631 707 531 764 l 741 822 l 835 730 l 729 618 q 817 368 817 515 q 703 92 817 204 q 418 -20 590 -20 q 191 54 289 -20 l 69 -69 l -22 21 m 243 380 q 256 306 243 351 l 479 543 q 416 553 450 553 q 293 503 342 553 q 243 380 243 452 m 335 212 q 422 192 381 191 q 550 242 500 192 q 599 376 599 293 q 576 467 599 424 l 335 212 z "},"ù":{"ha":817,"x_min":69,"x_max":743,"o":"m 69 254 l 69 746 l 290 746 l 290 342 q 313 225 290 260 q 397 191 335 191 q 528 342 528 191 l 528 746 l 743 746 l 743 0 l 539 0 l 539 100 q 325 -14 470 -14 q 138 57 207 -14 q 69 254 69 127 m 210 1092 l 385 1092 l 518 840 l 422 840 l 210 1092 z "},"ú":{"ha":817,"x_min":69,"x_max":743,"o":"m 69 254 l 69 746 l 290 746 l 290 342 q 313 225 290 260 q 397 191 335 191 q 528 342 528 191 l 528 746 l 743 746 l 743 0 l 539 0 l 539 100 q 325 -14 470 -14 q 138 57 207 -14 q 69 254 69 127 m 298 840 l 432 1092 l 607 1092 l 395 840 l 298 840 z "},"û":{"ha":817,"x_min":69,"x_max":743,"o":"m 69 254 l 69 746 l 290 746 l 290 342 q 313 225 290 260 q 397 191 335 191 q 528 342 528 191 l 528 746 l 743 746 l 743 0 l 539 0 l 539 100 q 325 -14 470 -14 q 138 57 207 -14 q 69 254 69 127 m 195 840 l 328 1092 l 489 1092 l 622 840 l 526 840 l 408 987 l 289 840 l 195 840 z "},"ü":{"ha":817,"x_min":69,"x_max":743,"o":"m 69 254 l 69 746 l 290 746 l 290 342 q 313 225 290 260 q 397 191 335 191 q 528 342 528 191 l 528 746 l 743 746 l 743 0 l 539 0 l 539 100 q 325 -14 470 -14 q 138 57 207 -14 q 69 254 69 127 m 214 880 l 214 1047 l 367 1047 l 367 880 l 214 880 m 450 880 l 450 1047 l 603 1047 l 603 880 l 450 880 z "},"ý":{"ha":739,"x_min":-18,"x_max":760,"o":"m 323 848 l 457 1100 l 632 1100 l 420 848 l 323 848 m -18 746 l 225 746 l 366 311 l 524 746 l 760 746 l 364 -241 l 143 -241 l 256 46 l -18 746 z "},"ÿ":{"ha":739,"x_min":-18,"x_max":760,"o":"m -18 746 l 225 746 l 366 311 l 524 746 l 760 746 l 364 -241 l 143 -241 l 256 46 l -18 746 m 175 880 l 175 1047 l 328 1047 l 328 880 l 175 880 m 411 880 l 411 1047 l 564 1047 l 564 880 l 411 880 z "},"ı":{"ha":386,"x_min":83,"x_max":301,"o":"m 83 0 l 83 746 l 301 746 l 301 0 l 83 0 z "},"Œ":{"ha":1412,"x_min":33,"x_max":1337,"o":"m 33 504 q 182 860 33 715 q 547 1004 330 1004 q 802 932 682 1004 l 802 987 l 1337 987 l 1337 770 l 1043 770 l 1043 610 l 1337 610 l 1337 390 l 1043 390 l 1043 220 l 1337 220 l 1337 0 l 800 0 l 800 53 q 543 -20 674 -19 q 261 62 378 -20 q 89 255 144 144 q 33 504 33 365 m 282 501 q 359 306 282 386 q 541 227 436 227 q 724 304 649 227 q 799 501 799 382 q 724 685 799 608 q 545 761 648 761 q 358 686 435 761 q 282 501 282 611 z "},"œ":{"ha":1407,"x_min":29,"x_max":1381,"o":"m 29 375 q 58 523 29 453 q 174 679 87 593 q 418 765 260 765 q 704 646 590 765 q 981 765 815 765 q 1270 644 1160 765 q 1381 317 1381 522 l 1381 293 l 817 293 q 990 174 844 174 q 1104 216 1057 174 l 1346 216 q 983 -21 1240 -21 q 704 96 817 -21 q 421 -21 582 -21 q 170 67 254 -21 q 57 225 85 155 q 29 375 29 296 m 245 375 q 293 242 245 290 q 424 193 340 193 q 551 244 503 193 q 599 379 599 294 q 549 504 599 456 q 416 553 498 553 q 294 503 342 553 q 245 375 245 453 m 811 449 l 1160 449 q 983 567 1120 567 q 868 535 914 567 q 811 449 822 503 z "},"Ÿ":{"ha":713,"x_min":-49,"x_max":762,"o":"m -49 987 l 216 987 l 359 625 l 510 987 l 762 987 l 475 366 l 475 0 l 232 0 l 232 366 l -49 987 m 162 1118 l 162 1284 l 315 1284 l 315 1118 l 162 1118 m 398 1118 l 398 1284 l 551 1284 l 551 1118 l 398 1118 z "},"ˆ":{"ha":1389,"x_min":282,"x_max":1105,"o":"m 282 610 l 608 990 l 779 990 l 1105 610 l 946 610 l 694 861 l 441 610 l 282 610 z "},"ˉ":{"ha":694,"x_min":153,"x_max":542,"o":"m 153 911 l 153 1017 l 542 1017 l 542 911 l 153 911 z "},"˜":{"ha":412,"x_min":-215,"x_max":215,"o":"m -215 83 q -77 243 -182 243 q -49 242 -63 243 q -18 235 -35 241 l 45 217 q 82 212 62 212 q 140 270 125 212 l 215 270 q 74 104 180 104 q 24 113 52 104 l -36 130 q -60 136 -50 134 q -81 138 -71 138 q -140 83 -123 138 l -215 83 z "},"̂":{"ha":694,"x_min":134,"x_max":561,"o":"m 134 840 l 267 1092 l 428 1092 l 561 840 l 465 840 l 347 987 l 228 840 l 134 840 z "},"̃":{"ha":694,"x_min":132,"x_max":562,"o":"m 132 872 q 271 1032 165 1032 q 298 1031 284 1032 q 329 1023 313 1029 l 392 1006 q 429 1000 409 1000 q 488 1059 472 1000 l 562 1059 q 421 893 528 893 q 371 901 399 893 l 311 918 q 287 924 298 922 q 267 926 277 926 q 207 872 224 926 l 132 872 z "}," ":{"ha":669,"x_min":0,"x_max":0,"o":""}," ":{"ha":1340,"x_min":0,"x_max":0,"o":""}," ":{"ha":669,"x_min":0,"x_max":0,"o":""}," ":{"ha":1340,"x_min":0,"x_max":0,"o":""}," ":{"ha":446,"x_min":0,"x_max":0,"o":""}," ":{"ha":334,"x_min":0,"x_max":0,"o":""}," ":{"ha":222,"x_min":0,"x_max":0,"o":""}," ":{"ha":222,"x_min":0,"x_max":0,"o":""}," ":{"ha":166,"x_min":0,"x_max":0,"o":""}," ":{"ha":268,"x_min":0,"x_max":0,"o":""}," ":{"ha":73,"x_min":0,"x_max":0,"o":""},"‐":{"ha":486,"x_min":54,"x_max":428,"o":"m 54 273 l 54 472 l 428 472 l 428 273 l 54 273 z "},"‑":{"ha":486,"x_min":54,"x_max":428,"o":"m 54 273 l 54 472 l 428 472 l 428 273 l 54 273 z "},"‒":{"ha":486,"x_min":54,"x_max":428,"o":"m 54 273 l 54 472 l 428 472 l 428 273 l 54 273 z "},"–":{"ha":694,"x_min":0,"x_max":694,"o":"m 0 289 l 0 456 l 694 456 l 694 289 l 0 289 z "},"—":{"ha":1389,"x_min":0,"x_max":1389,"o":"m 0 289 l 0 456 l 1389 456 l 1389 289 l 0 289 z "},"‘":{"ha":354,"x_min":66,"x_max":293,"o":"m 66 553 l 66 808 q 260 1008 66 1008 l 293 1007 l 293 893 l 281 893 q 217 870 235 893 q 200 789 200 847 l 200 781 l 293 781 l 293 553 l 66 553 z "},"’":{"ha":354,"x_min":74,"x_max":300,"o":"m 74 533 l 74 647 l 86 647 q 150 670 132 647 q 167 751 167 693 l 167 760 l 74 760 l 74 987 l 300 987 l 300 732 q 107 532 300 532 l 74 533 z "},"‚":{"ha":354,"x_min":74,"x_max":300,"o":"m 74 0 l 74 228 l 300 228 l 300 -26 q 107 -227 300 -227 l 74 -225 l 74 -111 l 87 -111 q 150 -89 134 -111 q 167 -8 167 -66 l 167 0 l 74 0 z "},"“":{"ha":676,"x_min":68,"x_max":618,"o":"m 68 553 l 68 808 q 261 1008 68 1008 l 294 1007 l 294 893 l 282 893 q 219 870 236 893 q 201 789 201 847 l 201 781 l 294 781 l 294 553 l 68 553 m 392 553 l 392 808 q 585 1008 392 1008 l 618 1007 l 618 893 l 606 893 q 542 870 559 893 q 525 789 525 847 l 525 781 l 618 781 l 618 553 l 392 553 z "},"”":{"ha":676,"x_min":74,"x_max":624,"o":"m 74 533 l 74 647 l 86 647 q 150 670 132 647 q 167 751 167 693 l 167 760 l 74 760 l 74 987 l 300 987 l 300 732 q 107 532 300 532 l 74 533 m 397 533 l 397 647 l 410 647 q 473 670 456 647 q 490 751 490 693 l 490 760 l 397 760 l 397 987 l 624 987 l 624 732 q 577 581 624 630 q 431 532 530 532 l 397 533 z "},"„":{"ha":676,"x_min":74,"x_max":624,"o":"m 74 0 l 74 228 l 300 228 l 300 -26 q 107 -227 300 -227 l 74 -225 l 74 -111 l 87 -111 q 150 -89 134 -111 q 167 -8 167 -66 l 167 0 l 74 0 m 397 0 l 397 228 l 624 228 l 624 -26 q 431 -227 624 -227 l 397 -225 l 397 -111 l 411 -111 q 474 -89 457 -111 q 490 -8 490 -66 l 490 0 l 397 0 z "},"•":{"ha":819,"x_min":208,"x_max":610,"o":"m 208 517 q 267 659 208 600 q 410 717 325 717 q 551 659 493 717 q 610 517 610 600 q 551 375 610 435 q 408 315 493 315 q 267 374 325 315 q 208 517 208 432 z "},"…":{"ha":1389,"x_min":119,"x_max":1271,"o":"m 119 0 l 119 228 l 345 228 l 345 0 l 119 0 m 582 0 l 582 228 l 807 228 l 807 0 l 582 0 m 1046 0 l 1046 228 l 1271 228 l 1271 0 l 1046 0 z "}," ":{"ha":268,"x_min":0,"x_max":0,"o":""},"‹":{"ha":513,"x_min":106,"x_max":408,"o":"m 106 382 l 241 582 l 408 582 l 273 380 l 408 176 l 241 176 l 106 382 z "},"›":{"ha":513,"x_min":106,"x_max":408,"o":"m 106 176 l 241 380 l 106 582 l 273 582 l 408 382 l 273 176 l 106 176 z "}," ":{"ha":334,"x_min":0,"x_max":0,"o":""},"™":{"ha":1156,"x_min":140,"x_max":981,"o":"m 140 916 l 140 991 l 469 991 l 469 916 l 355 916 l 355 621 l 254 621 l 254 916 l 140 916 m 545 621 l 545 991 l 677 991 l 764 766 l 847 991 l 981 991 l 981 621 l 889 621 l 889 899 l 785 621 l 743 621 l 636 899 l 636 621 l 545 621 z "},"":{"ha":746,"x_min":0,"x_max":746,"o":"m 0 746 l 746 746 l 746 0 l 0 0 l 0 746 z "},"ﬁ":{"ha":819,"x_min":17,"x_max":734,"o":"m 517 0 l 517 746 l 734 746 l 734 0 l 517 0 m 517 814 l 517 987 l 734 987 l 734 814 l 517 814 m 17 579 l 17 746 l 97 746 l 96 774 q 366 1006 96 1006 l 400 1004 l 400 854 l 395 854 q 329 835 346 854 q 313 764 313 815 l 313 746 l 400 746 l 400 579 l 313 579 l 313 0 l 97 0 l 97 579 l 17 579 z "},"ﬂ":{"ha":819,"x_min":17,"x_max":734,"o":"m 517 0 l 517 987 l 734 987 l 734 0 l 517 0 m 17 579 l 17 746 l 97 746 l 96 774 q 366 1006 96 1006 l 400 1004 l 400 854 l 395 854 q 329 835 346 854 q 313 764 313 815 l 313 746 l 400 746 l 400 579 l 313 579 l 313 0 l 97 0 l 97 579 l 17 579 z "},"ﬃ":{"ha":1253,"x_min":17,"x_max":1168,"o":"m 950 0 l 950 746 l 1168 746 l 1168 0 l 950 0 m 950 814 l 950 987 l 1168 987 l 1168 814 l 950 814 m 450 579 l 450 746 l 530 746 l 529 774 q 799 1006 529 1006 l 833 1004 l 833 854 l 828 854 q 763 835 779 854 q 746 764 746 815 l 746 746 l 833 746 l 833 579 l 746 579 l 746 0 l 530 0 l 530 579 l 450 579 m 17 579 l 17 746 l 97 746 l 96 774 q 366 1006 96 1006 l 400 1004 l 400 854 l 395 854 q 329 835 346 854 q 313 764 313 815 l 313 746 l 400 746 l 400 579 l 313 579 l 313 0 l 97 0 l 97 579 l 17 579 z "},"ﬄ":{"ha":1253,"x_min":17,"x_max":1168,"o":"m 950 0 l 950 987 l 1168 987 l 1168 0 l 950 0 m 450 579 l 450 746 l 530 746 l 529 774 q 799 1006 529 1006 l 833 1004 l 833 854 l 828 854 q 763 835 779 854 q 746 764 746 815 l 746 746 l 833 746 l 833 579 l 746 579 l 746 0 l 530 0 l 530 579 l 450 579 m 17 579 l 17 746 l 97 746 l 96 774 q 366 1006 96 1006 l 400 1004 l 400 854 l 395 854 q 329 835 346 854 q 313 764 313 815 l 313 746 l 400 746 l 400 579 l 313 579 l 313 0 l 97 0 l 97 579 l 17 579 z "}}}
